<svg xmlns="http://www.w3.org/2000/svg" viewBox="0 0 1920 700" width="1920" height="700">
  <defs>
    <linearGradient id="sky" x1="0" y1="0" x2="1" y2="0.3">
      <stop offset="0%" stop-color="#e0ede2" />
      <stop offset="55%" stop-color="#f2ead4" />
      <stop offset="100%" stop-color="#faf6ec" />
    </linearGradient>
  </defs>

  <rect width="1920" height="700" fill="url(#sky)" />

  <circle cx="1620" cy="180" r="110" fill="#d9ae52" opacity="0.9" />
  <circle cx="1620" cy="180" r="110" fill="none" stroke="#c99a3d" stroke-width="5" opacity="0.6" />

  <!-- Dãy núi xa -->
  <path d="M0 420 L200 320 L370 410 L560 300 L760 405 L960 305 L1180 415 L1380 320 L1580 405 L1780 320 L1920 400 L1920 700 L0 700 Z" fill="#97c1a1" opacity="0.55" />

  <!-- Ruộng bậc thang -->
  <path d="M0 520 L240 470 L500 525 L780 465 L1060 530 L1340 470 L1620 528 L1920 475 L1920 700 L0 700 Z" fill="#67a175" opacity="0.75" />
  <path d="M0 570 L280 540 L560 580 L860 535 L1160 582 L1460 535 L1920 575 L1920 700 L0 700 Z" fill="#3f7f52" />
  <path d="M0 615 L340 598 L680 625 L1040 595 L1400 628 L1920 600 L1920 700 L0 700 Z" fill="#1f5c3f" />

  <path d="M0 570 L280 540 L560 580 L860 535 L1160 582 L1460 535 L1920 575" fill="none" stroke="#f2ead4" stroke-width="3" opacity="0.3" />
  <path d="M0 615 L340 598 L680 625 L1040 595 L1400 628 L1920 600" fill="none" stroke="#f2ead4" stroke-width="3" opacity="0.3" />

  <g fill="#143b28" opacity="0.9">
    <ellipse cx="1480" cy="480" rx="40" ry="24" />
    <ellipse cx="1740" cy="495" rx="46" ry="27" />
    <ellipse cx="1240" cy="465" rx="34" ry="20" />
  </g>

  <g fill="#c99a3d" opacity="0.8">
    <path d="M 1420 230 l 6 16 16 6 -16 6 -6 16 -6 -16 -16 -6 16 -6 Z" />
    <path d="M 1780 120 l 6 16 16 6 -16 6 -6 16 -6 -16 -16 -6 16 -6 Z" />
    <path d="M 1560 320 l 4 12 12 4 -12 4 -4 12 -4 -12 -12 -4 12 -4 Z" />
  </g>
</svg>
